<svg xmlns="http://www.w3.org/2000/svg" xmlns:xlink="http://www.w3.org/1999/xlink" contentStyleType="text/css" height="2234.375px" preserveAspectRatio="none" style="width:2932px;height:2234px;background:#FFFFFF;" version="1.1" viewBox="0 0 2932 2234" width="2932.8125px" zoomAndPan="magnify"><defs/><g><rect fill="none" height="390.9302" style="stroke:#000000;stroke-width:2.34375;" width="2890.625" x="15.625" y="1259.7168"/><line style="stroke:#181818;stroke-width:0.78125;stroke-dasharray:5.0,5.0;" x1="79.6875" x2="79.6875" y1="127.0264" y2="2108.7646"/><line style="stroke:#181818;stroke-width:0.78125;stroke-dasharray:5.0,5.0;" x1="692.1875" x2="692.1875" y1="127.0264" y2="2108.7646"/><line style="stroke:#181818;stroke-width:0.78125;stroke-dasharray:5.0,5.0;" x1="1379.6875" x2="1379.6875" y1="127.0264" y2="2108.7646"/><line style="stroke:#181818;stroke-width:0.78125;stroke-dasharray:5.0,5.0;" x1="2042.1875" x2="2042.1875" y1="127.0264" y2="2108.7646"/><line style="stroke:#181818;stroke-width:0.78125;stroke-dasharray:5.0,5.0;" x1="2767.1875" x2="2767.1875" y1="127.0264" y2="2108.7646"/><text fill="#000000" font-family="Courier" font-size="21.875" lengthAdjust="spacing" textLength="87.5" x="31.25" y="121.8674">Student</text><ellipse cx="79.6875" cy="21.0938" fill="#E3E3E3" rx="12.5" ry="12.5" style="stroke:#181818;stroke-width:0.78125;"/><path d="M79.6875,33.5938 L79.6875,75.7813 M59.375,46.0938 L100,46.0938 M79.6875,75.7813 L59.375,99.2188 M79.6875,75.7813 L100,99.2188 " fill="none" style="stroke:#181818;stroke-width:0.78125;"/><text fill="#000000" font-family="Courier" font-size="21.875" lengthAdjust="spacing" textLength="87.5" x="31.25" y="2127.507">Student</text><ellipse cx="79.6875" cy="2145.9473" fill="#E3E3E3" rx="12.5" ry="12.5" style="stroke:#181818;stroke-width:0.78125;"/><path d="M79.6875,2158.4473 L79.6875,2200.6348 M59.375,2170.9473 L100,2170.9473 M79.6875,2200.6348 L59.375,2224.0723 M79.6875,2200.6348 L100,2224.0723 " fill="none" style="stroke:#181818;stroke-width:0.78125;"/><rect fill="#E3E3E3" height="47.3389" rx="3.9063" ry="3.9063" style="stroke:#181818;stroke-width:0.78125;" width="209.375" x="587.5" y="78.125"/><text fill="#000000" font-family="Courier" font-size="21.875" lengthAdjust="spacing" textLength="187.5" x="598.4375" y="109.3674">NOOD Mobile App</text><rect fill="#E3E3E3" height="47.3389" rx="3.9063" ry="3.9063" style="stroke:#181818;stroke-width:0.78125;" width="209.375" x="587.5" y="2107.2021"/><text fill="#000000" font-family="Courier" font-size="21.875" lengthAdjust="spacing" textLength="187.5" x="598.4375" y="2138.4445">NOOD Mobile App</text><rect fill="#E3E3E3" height="47.3389" rx="3.9063" ry="3.9063" style="stroke:#181818;stroke-width:0.78125;" width="121.875" x="1318.75" y="78.125"/><text fill="#000000" font-family="Courier" font-size="21.875" lengthAdjust="spacing" textLength="100" x="1329.6875" y="109.3674">Supabase</text><rect fill="#E3E3E3" height="47.3389" rx="3.9063" ry="3.9063" style="stroke:#181818;stroke-width:0.78125;" width="121.875" x="1318.75" y="2107.2021"/><text fill="#000000" font-family="Courier" font-size="21.875" lengthAdjust="spacing" textLength="100" x="1329.6875" y="2138.4445">Supabase</text><rect fill="#E3E3E3" height="72.8027" rx="3.9063" ry="3.9063" style="stroke:#181818;stroke-width:0.78125;" width="209.375" x="1937.5" y="52.6611"/><text fill="#000000" font-family="Courier" font-size="21.875" lengthAdjust="spacing" textLength="187.5" x="1948.4375" y="83.9035">AI Microservice</text><text fill="#000000" font-family="Courier" font-size="21.875" lengthAdjust="spacing" textLength="112.5" x="1985.9375" y="109.3674">(FastAPI)</text><rect fill="#E3E3E3" height="72.8027" rx="3.9063" ry="3.9063" style="stroke:#181818;stroke-width:0.78125;" width="209.375" x="1937.5" y="2107.2021"/><text fill="#000000" font-family="Courier" font-size="21.875" lengthAdjust="spacing" textLength="187.5" x="1948.4375" y="2138.4445">AI Microservice</text><text fill="#000000" font-family="Courier" font-size="21.875" lengthAdjust="spacing" textLength="112.5" x="1985.9375" y="2163.9084">(FastAPI)</text><rect fill="#E3E3E3" height="72.8027" rx="3.9063" ry="3.9063" style="stroke:#181818;stroke-width:0.78125;" width="246.875" x="2643.75" y="52.6611"/><text fill="#000000" font-family="Courier" font-size="21.875" lengthAdjust="spacing" textLength="137.5" x="2698.4375" y="83.9035">OpenAI APIs</text><text fill="#000000" font-family="Courier" font-size="21.875" lengthAdjust="spacing" textLength="225" x="2654.6875" y="109.3674">(Whisper + GPT-4o)</text><rect fill="#E3E3E3" height="72.8027" rx="3.9063" ry="3.9063" style="stroke:#181818;stroke-width:0.78125;" width="246.875" x="2643.75" y="2107.2021"/><text fill="#000000" font-family="Courier" font-size="21.875" lengthAdjust="spacing" textLength="137.5" x="2698.4375" y="2138.4445">OpenAI APIs</text><text fill="#000000" font-family="Courier" font-size="21.875" lengthAdjust="spacing" textLength="225" x="2654.6875" y="2163.9084">(Whisper + GPT-4o)</text><rect fill="#EEEEEE" height="4.6875" style="stroke:#EEEEEE;stroke-width:1.5625;" width="2921.875" x="0" y="174.7864"/><line style="stroke:#000000;stroke-width:1.5625;" x1="0" x2="2921.875" y1="174.7864" y2="174.7864"/><line style="stroke:#000000;stroke-width:1.5625;" x1="0" x2="2921.875" y1="179.4739" y2="179.4739"/><rect fill="#EEEEEE" height="36.145" style="stroke:#000000;stroke-width:3.125;" width="271.875" x="1325" y="158.2764"/><text fill="#000000" font-family="Courier" font-size="20.3125" font-weight="bold" lengthAdjust="spacing" textLength="237.5" x="1334.375" y="183.3809">Daily Practice Flow</text><polygon fill="#181818" points="673.4375,236.8164,689.0625,243.0664,673.4375,249.3164,679.6875,243.0664" style="stroke:#181818;stroke-width:1.5625;"/><line style="stroke:#181818;stroke-width:1.5625;" x1="79.6875" x2="682.8125" y1="243.0664" y2="243.0664"/><text fill="#000000" font-family="Courier" font-size="20.3125" lengthAdjust="spacing" textLength="500" x="90.625" y="235.1509">Opens app / gets daily push notification</text><polygon fill="#181818" points="96.875,282.3364,81.25,288.5864,96.875,294.8364,90.625,288.5864" style="stroke:#181818;stroke-width:1.5625;"/><line style="stroke:#181818;stroke-width:1.5625;" x1="87.5" x2="690.625" y1="288.5864" y2="288.5864"/><text fill="#000000" font-family="Courier" font-size="20.3125" lengthAdjust="spacing" textLength="437.5" x="106.25" y="280.6709">Shows Home Dashboard + Daily Prompt</text><polygon fill="#181818" points="673.4375,327.8564,689.0625,334.1064,673.4375,340.3564,679.6875,334.1064" style="stroke:#181818;stroke-width:1.5625;"/><line style="stroke:#181818;stroke-width:1.5625;" x1="79.6875" x2="682.8125" y1="334.1064" y2="334.1064"/><text fill="#000000" font-family="Courier" font-size="20.3125" lengthAdjust="spacing" textLength="275" x="90.625" y="326.1909">Taps "Start Recording"</text><polygon fill="#181818" points="96.875,373.3765,81.25,379.6265,96.875,385.8765,90.625,379.6265" style="stroke:#181818;stroke-width:1.5625;"/><line style="stroke:#181818;stroke-width:1.5625;" x1="87.5" x2="690.625" y1="379.6265" y2="379.6265"/><text fill="#000000" font-family="Courier" font-size="20.3125" lengthAdjust="spacing" textLength="275" x="106.25" y="371.711">Shows Recording Screen</text><polygon fill="#181818" points="673.4375,418.8965,689.0625,425.1465,673.4375,431.3965,679.6875,425.1465" style="stroke:#181818;stroke-width:1.5625;"/><line style="stroke:#181818;stroke-width:1.5625;" x1="79.6875" x2="682.8125" y1="425.1465" y2="425.1465"/><text fill="#000000" font-family="Courier" font-size="20.3125" lengthAdjust="spacing" textLength="400" x="90.625" y="417.231">Speaks 1-3 min + stops recording</text><polygon fill="#181818" points="1360.9375,464.4165,1376.5625,470.6665,1360.9375,476.9165,1367.1875,470.6665" style="stroke:#181818;stroke-width:1.5625;"/><line style="stroke:#181818;stroke-width:1.5625;" x1="692.1875" x2="1370.3125" y1="470.6665" y2="470.6665"/><text fill="#000000" font-family="Courier" font-size="20.3125" lengthAdjust="spacing" textLength="362.5" x="703.125" y="462.751">Uploads audio file to Storage</text><polygon fill="#181818" points="1360.9375,509.9365,1376.5625,516.1865,1360.9375,522.4365,1367.1875,516.1865" style="stroke:#181818;stroke-width:1.5625;"/><line style="stroke:#181818;stroke-width:1.5625;" x1="692.1875" x2="1370.3125" y1="516.1865" y2="516.1865"/><text fill="#000000" font-family="Courier" font-size="20.3125" lengthAdjust="spacing" textLength="575" x="703.125" y="508.271">Triggers Edge Function / calls AI Microservice</text><polygon fill="#181818" points="2023.4375,555.4565,2039.0625,561.7065,2023.4375,567.9565,2029.6875,561.7065" style="stroke:#181818;stroke-width:1.5625;"/><line style="stroke:#181818;stroke-width:1.5625;" x1="1379.6875" x2="2032.8125" y1="561.7065" y2="561.7065"/><text fill="#000000" font-family="Courier" font-size="20.3125" lengthAdjust="spacing" textLength="387.5" x="1390.625" y="553.791">POST /analyze-audio + audio URL</text><polygon fill="#181818" points="2748.4375,600.9766,2764.0625,607.2266,2748.4375,613.4766,2754.6875,607.2266" style="stroke:#181818;stroke-width:1.5625;"/><line style="stroke:#181818;stroke-width:1.5625;" x1="2042.1875" x2="2757.8125" y1="607.2266" y2="607.2266"/><text fill="#000000" font-family="Courier" font-size="20.3125" lengthAdjust="spacing" textLength="537.5" x="2053.125" y="599.3111">Whisper API → transcribe audio + timestamps</text><polygon fill="#181818" points="2059.375,646.4966,2043.75,652.7466,2059.375,658.9966,2053.125,652.7466" style="stroke:#181818;stroke-width:1.5625;"/><line style="stroke:#181818;stroke-width:1.5625;stroke-dasharray:2.0,2.0;" x1="2050" x2="2765.625" y1="652.7466" y2="652.7466"/><text fill="#000000" font-family="Courier" font-size="20.3125" lengthAdjust="spacing" textLength="425" x="2068.75" y="644.8311">Transcript + word-level timestamps</text><line style="stroke:#181818;stroke-width:1.5625;" x1="2042.1875" x2="2107.8125" y1="698.2666" y2="698.2666"/><line style="stroke:#181818;stroke-width:1.5625;" x1="2107.8125" x2="2107.8125" y1="698.2666" y2="718.5791"/><line style="stroke:#181818;stroke-width:1.5625;" x1="2043.75" x2="2107.8125" y1="718.5791" y2="718.5791"/><polygon fill="#181818" points="2059.375,712.3291,2043.75,718.5791,2059.375,724.8291,2053.125,718.5791" style="stroke:#181818;stroke-width:1.5625;"/><text fill="#000000" font-family="Courier" font-size="20.3125" lengthAdjust="spacing" textLength="375" x="2053.125" y="690.3511">Detect fillers (text analysis)</text><line style="stroke:#181818;stroke-width:1.5625;" x1="2042.1875" x2="2107.8125" y1="764.0991" y2="764.0991"/><line style="stroke:#181818;stroke-width:1.5625;" x1="2107.8125" x2="2107.8125" y1="764.0991" y2="784.4116"/><line style="stroke:#181818;stroke-width:1.5625;" x1="2043.75" x2="2107.8125" y1="784.4116" y2="784.4116"/><polygon fill="#181818" points="2059.375,778.1616,2043.75,784.4116,2059.375,790.6616,2053.125,784.4116" style="stroke:#181818;stroke-width:1.5625;"/><text fill="#000000" font-family="Courier" font-size="20.3125" lengthAdjust="spacing" textLength="512.5" x="2053.125" y="756.1836">Calculate WPM, pauses, volume consistency</text><polygon fill="#181818" points="2748.4375,823.6816,2764.0625,829.9316,2748.4375,836.1816,2754.6875,829.9316" style="stroke:#181818;stroke-width:1.5625;"/><line style="stroke:#181818;stroke-width:1.5625;" x1="2042.1875" x2="2757.8125" y1="829.9316" y2="829.9316"/><text fill="#000000" font-family="Courier" font-size="20.3125" lengthAdjust="spacing" textLength="512.5" x="2053.125" y="822.0161">GPT-4o (prompt with transcript + metrics)</text><polygon fill="#181818" points="2059.375,869.2017,2043.75,875.4517,2059.375,881.7017,2053.125,875.4517" style="stroke:#181818;stroke-width:1.5625;"/><line style="stroke:#181818;stroke-width:1.5625;stroke-dasharray:2.0,2.0;" x1="2050" x2="2765.625" y1="875.4517" y2="875.4517"/><text fill="#000000" font-family="Courier" font-size="20.3125" lengthAdjust="spacing" textLength="550" x="2068.75" y="867.5362">Confidence score (1-10) + 3 improvement tips</text><polygon fill="#181818" points="1396.875,914.7217,1381.25,920.9717,1396.875,927.2217,1390.625,920.9717" style="stroke:#181818;stroke-width:1.5625;"/><line style="stroke:#181818;stroke-width:1.5625;stroke-dasharray:2.0,2.0;" x1="1387.5" x2="2040.625" y1="920.9717" y2="920.9717"/><text fill="#000000" font-family="Courier" font-size="20.3125" lengthAdjust="spacing" textLength="625" x="1406.25" y="913.0562">Saves results (score, tips, metrics) to PostgreSQL</text><polygon fill="#181818" points="709.375,960.2417,693.75,966.4917,709.375,972.7417,703.125,966.4917" style="stroke:#181818;stroke-width:1.5625;"/><line style="stroke:#181818;stroke-width:1.5625;stroke-dasharray:2.0,2.0;" x1="700" x2="1378.125" y1="966.4917" y2="966.4917"/><text fill="#000000" font-family="Courier" font-size="20.3125" lengthAdjust="spacing" textLength="450" x="718.75" y="958.5762">Realtime subscription → new feedback</text><polygon fill="#181818" points="96.875,1005.7617,81.25,1012.0117,96.875,1018.2617,90.625,1012.0117" style="stroke:#181818;stroke-width:1.5625;"/><line style="stroke:#181818;stroke-width:1.5625;" x1="87.5" x2="690.625" y1="1012.0117" y2="1012.0117"/><text fill="#000000" font-family="Courier" font-size="20.3125" lengthAdjust="spacing" textLength="575" x="106.25" y="1004.0962">Shows Feedback Screen (score + tips + metrics)</text><line style="stroke:#181818;stroke-width:1.5625;" x1="79.6875" x2="145.3125" y1="1057.5317" y2="1057.5317"/><line style="stroke:#181818;stroke-width:1.5625;" x1="145.3125" x2="145.3125" y1="1057.5317" y2="1077.8442"/><line style="stroke:#181818;stroke-width:1.5625;" x1="81.25" x2="145.3125" y1="1077.8442" y2="1077.8442"/><polygon fill="#181818" points="96.875,1071.5942,81.25,1077.8442,96.875,1084.0942,90.625,1077.8442" style="stroke:#181818;stroke-width:1.5625;"/><text fill="#000000" font-family="Courier" font-size="20.3125" lengthAdjust="spacing" textLength="387.5" x="90.625" y="1049.6162">Reads feedback, feels motivated</text><rect fill="#EEEEEE" height="4.6875" style="stroke:#EEEEEE;stroke-width:1.5625;" width="2921.875" x="0" y="1122.4792"/><line style="stroke:#000000;stroke-width:1.5625;" x1="0" x2="2921.875" y1="1122.4792" y2="1122.4792"/><line style="stroke:#000000;stroke-width:1.5625;" x1="0" x2="2921.875" y1="1127.1667" y2="1127.1667"/><rect fill="#EEEEEE" height="36.145" style="stroke:#000000;stroke-width:3.125;" width="334.375" x="1293.75" y="1105.9692"/><text fill="#000000" font-family="Courier" font-size="20.3125" font-weight="bold" lengthAdjust="spacing" textLength="300" x="1303.125" y="1131.0738">Interview Simulator Flow</text><polygon fill="#181818" points="673.4375,1184.5093,689.0625,1190.7593,673.4375,1197.0093,679.6875,1190.7593" style="stroke:#181818;stroke-width:1.5625;"/><line style="stroke:#181818;stroke-width:1.5625;" x1="79.6875" x2="682.8125" y1="1190.7593" y2="1190.7593"/><text fill="#000000" font-family="Courier" font-size="20.3125" lengthAdjust="spacing" textLength="500" x="90.625" y="1182.8438">Goes to Interview tab + selects scenario</text><polygon fill="#181818" points="96.875,1230.0293,81.25,1236.2793,96.875,1242.5293,90.625,1236.2793" style="stroke:#181818;stroke-width:1.5625;"/><line style="stroke:#181818;stroke-width:1.5625;" x1="87.5" x2="690.625" y1="1236.2793" y2="1236.2793"/><text fill="#000000" font-family="Courier" font-size="20.3125" lengthAdjust="spacing" textLength="250" x="106.25" y="1228.3638">Shows first question</text><path d="M15.625,1259.7168 L135.9375,1259.7168 L135.9375,1270.8618 L120.3125,1286.4868 L15.625,1286.4868 L15.625,1259.7168 " fill="#EEEEEE" style="stroke:#000000;stroke-width:2.34375;"/><rect fill="none" height="390.9302" style="stroke:#000000;stroke-width:2.34375;" width="2890.625" x="15.625" y="1259.7168"/><text fill="#000000" font-family="Courier" font-size="20.3125" font-weight="bold" lengthAdjust="spacing" textLength="50" x="39.0625" y="1280.1338">loop</text><text fill="#000000" font-family="Courier" font-size="17.1875" font-weight="bold" lengthAdjust="spacing" textLength="164.0625" x="159.375" y="1278.7956">[Each question]</text><polygon fill="#181818" points="673.4375,1313.2568,689.0625,1319.5068,673.4375,1325.7568,679.6875,1319.5068" style="stroke:#181818;stroke-width:1.5625;"/><line style="stroke:#181818;stroke-width:1.5625;" x1="79.6875" x2="682.8125" y1="1319.5068" y2="1319.5068"/><text fill="#000000" font-family="Courier" font-size="20.3125" lengthAdjust="spacing" textLength="287.5" x="90.625" y="1311.5913">Records or types answer</text><polygon fill="#181818" points="1360.9375,1358.7769,1376.5625,1365.0269,1360.9375,1371.2769,1367.1875,1365.0269" style="stroke:#181818;stroke-width:1.5625;"/><line style="stroke:#181818;stroke-width:1.5625;" x1="692.1875" x2="1370.3125" y1="1365.0269" y2="1365.0269"/><text fill="#000000" font-family="Courier" font-size="20.3125" lengthAdjust="spacing" textLength="387.5" x="703.125" y="1357.1114">Uploads answer audio (if voice)</text><polygon fill="#181818" points="2023.4375,1404.2969,2039.0625,1410.5469,2023.4375,1416.7969,2029.6875,1410.5469" style="stroke:#181818;stroke-width:1.5625;"/><line style="stroke:#181818;stroke-width:1.5625;" x1="692.1875" x2="2032.8125" y1="1410.5469" y2="1410.5469"/><text fill="#000000" font-family="Courier" font-size="20.3125" lengthAdjust="spacing" textLength="512.5" x="703.125" y="1402.6314">POST /interview-answer + answer + context</text><polygon fill="#181818" points="2748.4375,1449.8169,2764.0625,1456.0669,2748.4375,1462.3169,2754.6875,1456.0669" style="stroke:#181818;stroke-width:1.5625;"/><line style="stroke:#181818;stroke-width:1.5625;" x1="2042.1875" x2="2757.8125" y1="1456.0669" y2="1456.0669"/><text fill="#000000" font-family="Courier" font-size="20.3125" lengthAdjust="spacing" textLength="687.5" x="2053.125" y="1448.1514">GPT-4o evaluates answer (clarity, structure, relevance)</text><polygon fill="#181818" points="2059.375,1495.3369,2043.75,1501.5869,2059.375,1507.8369,2053.125,1501.5869" style="stroke:#181818;stroke-width:1.5625;"/><line style="stroke:#181818;stroke-width:1.5625;stroke-dasharray:2.0,2.0;" x1="2050" x2="2765.625" y1="1501.5869" y2="1501.5869"/><text fill="#000000" font-family="Courier" font-size="20.3125" lengthAdjust="spacing" textLength="337.5" x="2068.75" y="1493.6714">Per-answer feedback + score</text><polygon fill="#181818" points="1396.875,1540.8569,1381.25,1547.1069,1396.875,1553.3569,1390.625,1547.1069" style="stroke:#181818;stroke-width:1.5625;"/><line style="stroke:#181818;stroke-width:1.5625;stroke-dasharray:2.0,2.0;" x1="1387.5" x2="2040.625" y1="1547.1069" y2="1547.1069"/><text fill="#000000" font-family="Courier" font-size="20.3125" lengthAdjust="spacing" textLength="287.5" x="1406.25" y="1539.1914">Saves answer + feedback</text><polygon fill="#181818" points="709.375,1586.377,693.75,1592.627,709.375,1598.877,703.125,1592.627" style="stroke:#181818;stroke-width:1.5625;"/><line style="stroke:#181818;stroke-width:1.5625;stroke-dasharray:2.0,2.0;" x1="700" x2="1378.125" y1="1592.627" y2="1592.627"/><text fill="#000000" font-family="Courier" font-size="20.3125" lengthAdjust="spacing" textLength="237.5" x="718.75" y="1584.7115">Updates UI realtime</text><polygon fill="#181818" points="96.875,1631.897,81.25,1638.147,96.875,1644.397,90.625,1638.147" style="stroke:#181818;stroke-width:1.5625;"/><line style="stroke:#181818;stroke-width:1.5625;" x1="87.5" x2="690.625" y1="1638.147" y2="1638.147"/><text fill="#000000" font-family="Courier" font-size="20.3125" lengthAdjust="spacing" textLength="462.5" x="106.25" y="1630.2315">Shows feedback bubble + next question</text><polygon fill="#181818" points="2748.4375,1688.3545,2764.0625,1694.6045,2748.4375,1700.8545,2754.6875,1694.6045" style="stroke:#181818;stroke-width:1.5625;"/><line style="stroke:#181818;stroke-width:1.5625;" x1="2042.1875" x2="2757.8125" y1="1694.6045" y2="1694.6045"/><text fill="#000000" font-family="Courier" font-size="20.3125" lengthAdjust="spacing" textLength="575" x="2053.125" y="1686.689">Final GPT-4o → overall session score &amp; summary</text><polygon fill="#181818" points="2059.375,1733.8745,2043.75,1740.1245,2059.375,1746.3745,2053.125,1740.1245" style="stroke:#181818;stroke-width:1.5625;"/><line style="stroke:#181818;stroke-width:1.5625;stroke-dasharray:2.0,2.0;" x1="2050" x2="2765.625" y1="1740.1245" y2="1740.1245"/><text fill="#000000" font-family="Courier" font-size="20.3125" lengthAdjust="spacing" textLength="187.5" x="2068.75" y="1732.209">Overall results</text><polygon fill="#181818" points="1396.875,1779.3945,1381.25,1785.6445,1396.875,1791.8945,1390.625,1785.6445" style="stroke:#181818;stroke-width:1.5625;"/><line style="stroke:#181818;stroke-width:1.5625;stroke-dasharray:2.0,2.0;" x1="1387.5" x2="2040.625" y1="1785.6445" y2="1785.6445"/><text fill="#000000" font-family="Courier" font-size="20.3125" lengthAdjust="spacing" textLength="262.5" x="1406.25" y="1777.729">Saves session summary</text><polygon fill="#181818" points="709.375,1824.9146,693.75,1831.1646,709.375,1837.4146,703.125,1831.1646" style="stroke:#181818;stroke-width:1.5625;"/><line style="stroke:#181818;stroke-width:1.5625;stroke-dasharray:2.0,2.0;" x1="700" x2="1378.125" y1="1831.1646" y2="1831.1646"/><text fill="#000000" font-family="Courier" font-size="20.3125" lengthAdjust="spacing" textLength="312.5" x="718.75" y="1823.2491">Shows final session recap</text><rect fill="#EEEEEE" height="4.6875" style="stroke:#EEEEEE;stroke-width:1.5625;" width="2921.875" x="0" y="1875.7996"/><line style="stroke:#000000;stroke-width:1.5625;" x1="0" x2="2921.875" y1="1875.7996" y2="1875.7996"/><line style="stroke:#000000;stroke-width:1.5625;" x1="0" x2="2921.875" y1="1880.4871" y2="1880.4871"/><rect fill="#EEEEEE" height="36.145" style="stroke:#000000;stroke-width:3.125;" width="246.875" x="1337.5" y="1859.2896"/><text fill="#000000" font-family="Courier" font-size="20.3125" font-weight="bold" lengthAdjust="spacing" textLength="212.5" x="1346.875" y="1884.3941">Progress Tracking</text><polygon fill="#181818" points="673.4375,1937.8296,689.0625,1944.0796,673.4375,1950.3296,679.6875,1944.0796" style="stroke:#181818;stroke-width:1.5625;"/><line style="stroke:#181818;stroke-width:1.5625;" x1="79.6875" x2="682.8125" y1="1944.0796" y2="1944.0796"/><text fill="#000000" font-family="Courier" font-size="20.3125" lengthAdjust="spacing" textLength="225" x="90.625" y="1936.1641">Opens Progress tab</text><polygon fill="#181818" points="1360.9375,1983.3496,1376.5625,1989.5996,1360.9375,1995.8496,1367.1875,1989.5996" style="stroke:#181818;stroke-width:1.5625;"/><line style="stroke:#181818;stroke-width:1.5625;" x1="692.1875" x2="1370.3125" y1="1989.5996" y2="1989.5996"/><text fill="#000000" font-family="Courier" font-size="20.3125" lengthAdjust="spacing" textLength="650" x="703.125" y="1981.6841">Queries PostgreSQL (scores, streaks, badges, levels)</text><polygon fill="#181818" points="709.375,2028.8696,693.75,2035.1196,709.375,2041.3696,703.125,2035.1196" style="stroke:#181818;stroke-width:1.5625;"/><line style="stroke:#181818;stroke-width:1.5625;stroke-dasharray:2.0,2.0;" x1="700" x2="1378.125" y1="2035.1196" y2="2035.1196"/><text fill="#000000" font-family="Courier" font-size="20.3125" lengthAdjust="spacing" textLength="287.5" x="718.75" y="2027.2041">Returns historical data</text><polygon fill="#181818" points="96.875,2074.3896,81.25,2080.6396,96.875,2086.8896,90.625,2080.6396" style="stroke:#181818;stroke-width:1.5625;"/><line style="stroke:#181818;stroke-width:1.5625;" x1="87.5" x2="690.625" y1="2080.6396" y2="2080.6396"/><text fill="#000000" font-family="Courier" font-size="20.3125" lengthAdjust="spacing" textLength="525" x="106.25" y="2072.7242">Shows chart, badges, stats, level progress</text><!--SRC=[RLNBRXit5DtFLrnuKSYmXCH8kn7W0eOTfGBYMF78oAOR3kTA8imXMP8ZLVs0V40_iL_ImtdfOMape-5zdtCkmvioJdXHKMMDbHjlAwReQyx2S18sehGxPTQq4ZeSdvHEqUrl7u-_y4hKEiwiYTy4GZtOsYlsMIPaj9xoM9Ti8eb0UPR19IgfdC2Ngs_Fpu_qP0kbcUwTkqesU9uQvRKJXGZSdAO_fyVtStfIqjl0Vgia_sb6Cn7Y_M9-tOQRdve_EpPmmNc0wO-D2euztT2NnNBogsrzMfiikxkZHw7qdXOUhI0upRJTqTrTbkKq-JsLEcsC0mddw0EjEGOg6nTNXmqP6zLAIH6LDHciarC-fNnZTu7-I6D_565JME5BbD3difMBnncMmWMC8Q8DUc5fVGbShjx56uuebvxP78V87OktGBUJJrGfWrmXMWJrlSiG3EETqglJLfHegYwLfLL29rhWQBrOywdfqglrcdsWp-KQuwcDJBrY559edQP_0WvAWbTJrNnAY-TyIH-44Nh_3q_QP3TTqjUNhra6RvYsQ4ofnmhGqNy__mLZXGdIguAfzusguX15vKBMuJpfSYqxOnTXjaFJ4yrRriSUNRfa_SYHPKoTwzJRAFBVu6ygDAXmVMJu8BIijOXCFnPFOtAY3Xp6jBMw1hZI6jX7Dd9_tanBDngv1ctQgRWP6cfgh3Xw9P7ih947QrOAUW8P0y1Z6jrERZzUm-CJgGhXjbmbjKNLjpHWbOij9ym3n8gc6lTnOpWUqYMW5pR4jUVy-zSUhvv6BonqcXY5kcWhJM0dC0plQCLS5aA-lMFch3leYDcbRl022OzwRHcRDud0lpxWEBs1JHNajCMmoqQQSnCJgv0uLrK20RlcWZw_M3IDhWxcKHH90Qo1SS0KsGYlxBkgLyg7I7_Lu4UIRwQjTVHPoCtX6-5toDGAC13gY7k7h81pXpsOh2xhgpdls3jIA_068ha-TZZeHFNrJpgt6nfUGBH4qQprl4GqtWfTOtH3qf7Kw3hknrW5lfQnJbpmcCbMcBw6C-ejsFUvUsJI71EMXyndR1jA7CZHpEo4LQ-kR2fxdQE0bc3PoT06HFgiHLqKEX78964ESB0fptKsKr1jFuH4LEZ3OpK1_X0IULig_W96LvNm-tEvFNVcdMek2Mg8r4KuqqnFfbH7RugzArn3OcnxI2s4jA3aMrhUbswNmGhKFTs_tsl6NHkEDDkfApJ0fgq_fa9WEUFPh3p8x5pK01z9i5uX8TnM6bTO5E_q83UuW0x1i3LZ7vDSL-3_]--></g><text x="98%" y="98%" text-anchor="end" font-size="5vh" fill="#cccccc" opacity="0.5" transform="translate(-10,-10)" font-family="Roboto, Arial, Helvetica, sans-serif">pladitor.com</text></svg>